<svg class="lS67ae" width="20" height="20" viewBox="0 0 20 20" fill="none" xmlns="http://www.w3.org/2000/svg"><g clip-path="url(#clip0-1927-8101)"><path d="M3 17H4.425L14.2 7.225L12.775 5.8L3 15.575V17ZM1 19V14.75L14.2 1.575C14.4 1.39166 14.6167 1.25 14.85 1.15C15.1 1.05 15.3583 0.999999 15.625 0.999999C15.8917 0.999999 16.15 1.05 16.4 1.15C16.65 1.25 16.8667 1.4 17.05 1.6L18.425 3C18.625 3.18333 18.7667 3.4 18.85 3.65C18.95 3.9 19 4.15 19 4.4C19 4.66667 18.95 4.925 18.85 5.175C18.7667 5.40833 18.625 5.625 18.425 5.825L5.25 19H1ZM17 4.4L15.6 3L17 4.4ZM13.475 6.525L12.775 5.8L14.2 7.225L13.475 6.525Z"></path></g><defs><clipPath id="clip0-1927-8101"><rect width="20" height="20" fill="white"></rect></clipPath></defs></svg>